<svg width="1070" height="40" viewBox="0 0 1070 40" fill="none" xmlns="http://www.w3.org/2000/svg">
<g clip-path="url(#clip0_2_214)">
<mask id="mask0_2_214" style="mask-type:luminance" maskUnits="userSpaceOnUse" x="898" y="0" width="172" height="40">
<path d="M1070 0H898V40H1070V0Z" fill="white"/>
</mask>
<g mask="url(#mask0_2_214)">
<path d="M947.036 28.9992H958.389V25.7665H950.498V10.6719H947.036V28.9992Z" fill="#080517"/>
<path d="M965.211 29.3821C966.586 29.3821 967.795 29.0766 968.839 28.4657C969.891 27.8463 970.71 26.9936 971.295 25.9076C971.889 24.813 972.186 23.553 972.186 22.1276C972.186 20.7106 971.893 19.4591 971.308 18.373C970.722 17.2785 969.903 16.4215 968.851 15.8021C967.808 15.1827 966.594 14.873 965.211 14.873C963.854 14.873 962.653 15.1785 961.61 15.7894C960.566 16.4003 959.747 17.253 959.153 18.3476C958.559 19.4336 958.262 20.6936 958.262 22.1276C958.262 23.5445 958.551 24.8003 959.128 25.8948C959.713 26.9809 960.528 27.8336 961.571 28.453C962.615 29.0724 963.828 29.3821 965.211 29.3821ZM965.211 26.1494C964.134 26.1494 963.315 25.7888 962.755 25.0676C962.203 24.3379 961.928 23.3579 961.928 22.1276C961.928 20.9312 962.191 19.9639 962.717 19.2257C963.251 18.4791 964.083 18.1057 965.211 18.1057C966.306 18.1057 967.129 18.4706 967.68 19.2003C968.24 19.93 968.52 20.9057 968.52 22.1276C968.52 23.307 968.245 24.2742 967.693 25.0294C967.15 25.776 966.323 26.1494 965.211 26.1494Z" fill="#080517"/>
<path d="M979.032 29.3821C979.677 29.3821 980.271 29.3057 980.814 29.153C981.365 29.0003 981.866 28.7839 982.316 28.5039V29.8912C982.333 30.4003 982.201 30.8245 981.921 31.1639C981.65 31.5118 981.285 31.7706 980.827 31.9403C980.368 32.1185 979.88 32.2076 979.363 32.2076C978.879 32.2076 978.43 32.1015 978.014 31.8894C977.607 31.6773 977.293 31.3676 977.072 30.9603L973.865 32.513C974.391 33.4039 975.142 34.1209 976.117 34.6639C977.093 35.2154 978.167 35.4912 979.337 35.4912C980.347 35.4912 981.285 35.3554 982.15 35.0839C983.016 34.8209 983.745 34.4179 984.339 33.8748C984.942 33.3318 985.353 32.6403 985.574 31.8003C985.65 31.5033 985.701 31.2021 985.727 30.8966C985.76 30.5997 985.777 30.2815 985.777 29.9421V15.2548H982.748V16.0185C982.282 15.6536 981.751 15.3736 981.157 15.1785C980.572 14.9748 979.923 14.873 979.21 14.873C977.895 14.873 976.75 15.187 975.774 15.8148C974.798 16.4427 974.039 17.3039 973.496 18.3985C972.961 19.4845 972.694 20.7276 972.694 22.1276C972.694 23.5021 972.957 24.7366 973.483 25.8312C974.017 26.9257 974.76 27.7912 975.71 28.4276C976.66 29.0639 977.768 29.3821 979.032 29.3821ZM979.592 26.3021C978.845 26.3021 978.234 26.1154 977.759 25.7421C977.284 25.3688 976.932 24.8682 976.703 24.2403C976.474 23.6039 976.359 22.8997 976.359 22.1276C976.359 21.3639 976.478 20.6682 976.716 20.0403C976.953 19.4039 977.318 18.8991 977.81 18.5257C978.311 18.1439 978.947 17.953 979.719 17.953C980.805 17.953 981.582 18.3391 982.048 19.1112C982.515 19.8748 982.748 20.8803 982.748 22.1276C982.748 23.3748 982.511 24.3845 982.036 25.1566C981.569 25.9203 980.754 26.3021 979.592 26.3021Z" fill="#080517"/>
<path d="M994 29.3821C995.374 29.3821 996.583 29.0766 997.627 28.4657C998.679 27.8463 999.498 26.9936 1000.08 25.9076C1000.68 24.813 1000.97 23.553 1000.97 22.1276C1000.97 20.7106 1000.68 19.4591 1000.1 18.373C999.511 17.2785 998.692 16.4215 997.64 15.8021C996.596 15.1827 995.383 14.873 994 14.873C992.642 14.873 991.442 15.1785 990.398 15.7894C989.354 16.4003 988.536 17.253 987.942 18.3476C987.348 19.4336 987.051 20.6936 987.051 22.1276C987.051 23.5445 987.339 24.8003 987.916 25.8948C988.502 26.9809 989.316 27.8336 990.36 28.453C991.403 29.0724 992.617 29.3821 994 29.3821ZM994 26.1494C992.922 26.1494 992.103 25.7888 991.543 25.0676C990.992 24.3379 990.716 23.3579 990.716 22.1276C990.716 20.9312 990.979 19.9639 991.505 19.2257C992.04 18.4791 992.871 18.1057 994 18.1057C995.094 18.1057 995.917 18.4706 996.469 19.2003C997.029 19.93 997.309 20.9057 997.309 22.1276C997.309 23.307 997.033 24.2742 996.482 25.0294C995.939 25.776 995.111 26.1494 994 26.1494Z" fill="#080517"/>
<path d="M1002.5 13.3455H1005.96V10.291H1002.5V13.3455ZM1002.5 29.0001H1005.96V15.2546H1002.5V29.0001Z" fill="#080517"/>
<path d="M1008.22 35.1094H1011.71V28.5039C1012.16 28.7839 1012.66 29.0003 1013.2 29.153C1013.75 29.3057 1014.35 29.3821 1015 29.3821C1016.26 29.3821 1017.37 29.0639 1018.32 28.4276C1019.27 27.7912 1020.01 26.9257 1020.53 25.8312C1021.07 24.7366 1021.33 23.5021 1021.33 22.1276C1021.33 20.7276 1021.06 19.4845 1020.52 18.3985C1019.98 17.3039 1019.23 16.4427 1018.25 15.8148C1017.28 15.187 1016.13 14.873 1014.82 14.873C1014.1 14.873 1013.45 14.9748 1012.86 15.1785C1012.27 15.3736 1011.75 15.6536 1011.28 16.0185V15.2548H1008.22V35.1094ZM1014.44 26.3021C1013.28 26.3021 1012.47 25.9203 1011.99 25.1566C1011.52 24.3845 1011.28 23.3748 1011.28 22.1276C1011.28 20.8803 1011.51 19.8748 1011.98 19.1112C1012.45 18.3391 1013.23 17.953 1014.31 17.953C1015.08 17.953 1015.71 18.1439 1016.2 18.5257C1016.71 18.8991 1017.07 19.4039 1017.31 20.0403C1017.55 20.6682 1017.67 21.3639 1017.67 22.1276C1017.67 22.8997 1017.55 23.6039 1017.32 24.2403C1017.1 24.8682 1016.74 25.3688 1016.27 25.7421C1015.79 26.1154 1015.18 26.3021 1014.44 26.3021Z" fill="#080517"/>
<path d="M1027.61 29.3821C1029.4 29.3821 1030.81 28.9791 1031.83 28.173C1032.85 27.3669 1033.36 26.2597 1033.36 24.8512C1033.36 23.7821 1033.03 22.9379 1032.37 22.3185C1031.71 21.6991 1030.6 21.1857 1029.03 20.7785C1027.96 20.5069 1027.16 20.2863 1026.64 20.1166C1026.12 19.947 1025.78 19.7815 1025.61 19.6203C1025.45 19.4591 1025.37 19.2597 1025.37 19.0221C1025.37 18.6233 1025.56 18.3179 1025.94 18.1057C1026.33 17.8936 1026.84 17.8088 1027.48 17.8512C1028.83 17.953 1029.57 18.53 1029.69 19.5821L1033.23 18.9457C1033.05 17.6985 1032.44 16.71 1031.4 15.9803C1030.35 15.2421 1029.02 14.873 1027.4 14.873C1025.74 14.873 1024.41 15.2633 1023.42 16.0439C1022.43 16.8245 1021.93 17.8766 1021.93 19.2003C1021.93 20.2524 1022.27 21.0839 1022.96 21.6948C1023.65 22.2973 1024.83 22.8148 1026.51 23.2476C1027.5 23.5106 1028.23 23.7227 1028.7 23.8839C1029.17 24.0451 1029.48 24.2106 1029.62 24.3803C1029.75 24.5415 1029.82 24.7579 1029.82 25.0294C1029.82 25.4621 1029.65 25.8015 1029.31 26.0476C1028.97 26.2851 1028.49 26.4039 1027.86 26.4039C1027.1 26.4039 1026.46 26.2215 1025.96 25.8566C1025.47 25.4918 1025.15 24.987 1025.01 24.3421L1021.47 24.8766C1021.7 26.3106 1022.34 27.4221 1023.41 28.2112C1024.47 28.9918 1025.87 29.3821 1027.61 29.3821Z" fill="#080517"/>
<path d="M1039.74 29.4067C1040.74 29.4067 1041.6 29.2412 1042.34 28.9103C1043.08 28.5794 1043.7 28.1382 1044.2 27.5867V28.9994H1047.25V15.2539H1043.77V22.2285C1043.77 23.077 1043.67 23.7642 1043.47 24.2903C1043.29 24.8079 1043.05 25.2024 1042.75 25.4739C1042.45 25.737 1042.13 25.9151 1041.79 26.0085C1041.45 26.1018 1041.14 26.1485 1040.84 26.1485C1040.1 26.1485 1039.53 25.983 1039.12 25.6521C1038.72 25.3212 1038.43 24.9097 1038.26 24.4176C1038.08 23.9254 1037.97 23.4376 1037.94 22.9539C1037.9 22.4618 1037.89 22.0588 1037.89 21.7448V15.2539H1034.37V22.9667C1034.37 23.1957 1034.39 23.5606 1034.42 24.0612C1034.46 24.5618 1034.56 25.1176 1034.72 25.7285C1034.88 26.3309 1035.15 26.9121 1035.52 27.4721C1035.9 28.0321 1036.43 28.4945 1037.11 28.8594C1037.79 29.2242 1038.67 29.4067 1039.74 29.4067Z" fill="#080517"/>
<path d="M1049.26 29.0002H1052.75V20.6765C1052.75 19.8875 1052.96 19.2469 1053.39 18.7547C1053.84 18.2541 1054.42 18.0038 1055.14 18.0038C1055.89 18.0038 1056.48 18.2584 1056.91 18.7675C1057.34 19.2681 1057.56 19.9723 1057.56 20.8802V29.0002H1061.02V20.6765C1061.02 19.8875 1061.23 19.2469 1061.67 18.7547C1062.11 18.2541 1062.69 18.0038 1063.41 18.0038C1064.17 18.0038 1064.76 18.2584 1065.18 18.7675C1065.61 19.2681 1065.83 19.9723 1065.83 20.8802V29.0002H1069.29V19.9638C1069.29 18.462 1068.89 17.2487 1068.08 16.3238C1067.28 15.3905 1066.1 14.9238 1064.53 14.9238C1063.65 14.9238 1062.84 15.1147 1062.1 15.4965C1061.36 15.8784 1060.77 16.4002 1060.33 17.062C1059.97 16.4172 1059.47 15.8996 1058.8 15.5093C1058.14 15.119 1057.32 14.9238 1056.33 14.9238C1055.5 14.9238 1054.74 15.0893 1054.04 15.4202C1053.35 15.7426 1052.77 16.1881 1052.31 16.7565V15.2547H1049.26V29.0002Z" fill="#080517"/>
<path d="M918 0C906.954 0 898 8.9543 898 20C909.046 20 918 11.0457 918 0Z" fill="#080517"/>
<path d="M918 40C929.046 40 938 31.0457 938 20C926.954 20 918 28.9543 918 40Z" fill="#080517"/>
<path d="M918 0C929.046 0 938 8.9543 938 20C926.954 20 918 11.0457 918 0Z" fill="#080517"/>
<path d="M918 40C906.954 40 898 31.0457 898 20C909.046 20 918 28.9543 918 40Z" fill="#080517"/>
</g>
</g>
<g clip-path="url(#clip1_2_214)">
<mask id="mask1_2_214" style="mask-type:luminance" maskUnits="userSpaceOnUse" x="682" y="0" width="166" height="40">
<path d="M848 0H682V40H848V0Z" fill="white"/>
</mask>
<g mask="url(#mask1_2_214)">
<path d="M732.071 28.6087H743.742V25.0965H736.219V11.8672H732.071V28.6087Z" fill="#080517"/>
<path d="M750.656 26.2657C748.992 26.2657 748.125 24.8139 748.125 22.6364C748.125 20.4588 748.992 18.9837 750.656 18.9837C752.32 18.9837 753.211 20.4588 753.211 22.6364C753.211 24.8139 752.32 26.2657 750.656 26.2657ZM750.68 28.9817C754.547 28.9817 757.078 26.2422 757.078 22.6364C757.078 19.0305 754.547 16.291 750.68 16.291C746.836 16.291 744.258 19.0305 744.258 22.6364C744.258 26.2422 746.836 28.9817 750.68 28.9817Z" fill="#080517"/>
<path d="M763.771 32.7515C765.552 32.7515 767.122 32.3534 768.177 31.4168C769.137 30.5505 769.77 29.2393 769.77 27.4364V16.6188H766.114V17.9066H766.067C765.364 16.8998 764.286 16.2676 762.693 16.2676C759.716 16.2676 757.654 18.7495 757.654 22.2617C757.654 25.9378 760.162 27.9515 762.857 27.9515C764.31 27.9515 765.224 27.3661 765.927 26.57H766.021V27.7642C766.021 29.2159 765.341 30.0588 763.724 30.0588C762.458 30.0588 761.826 29.5203 761.615 28.8881H757.912C758.287 31.3934 760.466 32.7515 763.771 32.7515ZM763.747 25.1183C762.318 25.1183 761.38 23.9476 761.38 22.1447C761.38 20.3183 762.318 19.1476 763.747 19.1476C765.341 19.1476 766.185 20.5056 766.185 22.1212C766.185 23.8071 765.411 25.1183 763.747 25.1183Z" fill="#080517"/>
<path d="M777.287 26.2657C775.624 26.2657 774.756 24.8139 774.756 22.6364C774.756 20.4588 775.624 18.9837 777.287 18.9837C778.951 18.9837 779.841 20.4588 779.841 22.6364C779.841 24.8139 778.951 26.2657 777.287 26.2657ZM777.311 28.9817C781.177 28.9817 783.708 26.2422 783.708 22.6364C783.708 19.0305 781.177 16.291 777.311 16.291C773.467 16.291 770.89 19.0305 770.89 22.6364C770.89 26.2422 773.467 28.9817 777.311 28.9817Z" fill="#080517"/>
<path d="M784.824 28.6087H788.644V16.6204H784.824V28.6087ZM784.824 14.9579H788.644V11.8672H784.824V14.9579Z" fill="#080517"/>
<path d="M790.301 32.5642H794.121V27.3661H794.168C794.918 28.3729 796.019 28.9817 797.566 28.9817C800.707 28.9817 802.792 26.4998 802.792 22.6129C802.792 19.0071 800.847 16.2676 797.66 16.2676C796.019 16.2676 794.848 16.9934 794.027 18.0705H793.957V16.6188H790.301V32.5642ZM796.582 26.0315C794.941 26.0315 794.004 24.6968 794.004 22.7534C794.004 20.81 794.848 19.3349 796.512 19.3349C798.152 19.3349 798.925 20.6929 798.925 22.7534C798.925 24.7905 798.035 26.0315 796.582 26.0315Z" fill="#080517"/>
<path d="M809.012 28.9817C812.152 28.9817 814.472 27.6237 814.472 25.0012C814.472 21.9339 811.988 21.3954 809.879 21.0442C808.355 20.7632 806.996 20.6461 806.996 19.8032C806.996 19.0539 807.723 18.7027 808.66 18.7027C809.715 18.7027 810.441 19.0305 810.582 20.1076H814.097C813.91 17.7427 812.082 16.2676 808.683 16.2676C805.848 16.2676 803.504 17.5788 803.504 20.1076C803.504 22.9173 805.731 23.4793 807.816 23.8305C809.41 24.1115 810.863 24.2286 810.863 25.3056C810.863 26.0783 810.136 26.4998 808.988 26.4998C807.723 26.4998 806.926 25.9144 806.785 24.7203H803.176C803.293 27.3661 805.496 28.9817 809.012 28.9817Z" fill="#080517"/>
<path d="M819.661 28.9606C821.325 28.9606 822.379 28.305 823.246 27.1343H823.317V28.6094H826.973V16.6211H823.153V23.3177C823.153 24.746 822.356 25.7294 821.043 25.7294C819.825 25.7294 819.239 25.0035 819.239 23.6923V16.6211H815.442V24.4884C815.442 27.1577 816.895 28.9606 819.661 28.9606Z" fill="#080517"/>
<path d="M828.635 28.6071H832.455V21.8871C832.455 20.4588 833.158 19.452 834.353 19.452C835.501 19.452 836.04 20.2012 836.04 21.489V28.6071H839.86V21.8871C839.86 20.4588 840.54 19.452 841.758 19.452C842.907 19.452 843.446 20.2012 843.446 21.489V28.6071H847.266V20.81C847.266 18.1173 845.906 16.2676 843.188 16.2676C841.641 16.2676 840.352 16.9232 839.415 18.3749H839.368C838.759 17.0871 837.563 16.2676 835.993 16.2676C834.259 16.2676 833.111 17.0871 832.361 18.3281H832.291V16.6188H828.635V28.6071Z" fill="#080517"/>
<path fill-rule="evenodd" clip-rule="evenodd" d="M701.628 39.3388C712.414 39.3388 721.158 30.6029 721.158 19.8266C721.158 9.05035 712.414 0.314453 701.628 0.314453C690.843 0.314453 682.099 9.05035 682.099 19.8266C682.099 30.6029 690.843 39.3388 701.628 39.3388ZM704.643 15.3901C706.307 13.7268 706.307 11.0301 704.643 9.3668C702.978 7.70351 700.279 7.70351 698.614 9.3668C696.949 11.0301 696.949 13.7268 698.614 15.3901L701.628 18.4017L704.643 15.3901ZM706.069 22.8383C707.734 24.5016 710.433 24.5016 712.097 22.8383C713.762 21.175 713.762 18.4783 712.097 16.815C710.433 15.1518 707.734 15.1518 706.069 16.815L703.055 19.8267L706.069 22.8383ZM704.643 30.2865C706.307 28.6232 706.307 25.9265 704.643 24.2632L701.628 21.2516L698.614 24.2632C696.949 25.9265 696.949 28.6232 698.614 30.2865C700.279 31.9498 702.978 31.9498 704.643 30.2865ZM691.159 22.8383C689.495 21.175 689.495 18.4783 691.159 16.815C692.824 15.1518 695.523 15.1518 697.188 16.815L700.202 19.8267L697.188 22.8383C695.523 24.5016 692.824 24.5016 691.159 22.8383Z" fill="#080517"/>
</g>
</g>
<g clip-path="url(#clip2_2_214)">
<mask id="mask2_2_214" style="mask-type:luminance" maskUnits="userSpaceOnUse" x="430" y="0" width="202" height="40">
<path d="M632 0H430V40H632V0Z" fill="white"/>
</mask>
<g mask="url(#mask2_2_214)">
<path fill-rule="evenodd" clip-rule="evenodd" d="M455.556 11.6853C453.911 10.5865 451.978 10 450 10V0C453.956 0 457.822 1.17298 461.111 3.37061C464.4 5.56823 466.964 8.69181 468.478 12.3463C469.991 16.0008 470.387 20.0222 469.616 23.9018C468.844 27.7814 466.939 31.3451 464.142 34.1421C461.345 36.9392 457.781 38.844 453.902 39.6157C450.022 40.3874 446.001 39.9913 442.346 38.4776C438.692 36.9638 435.568 34.4004 433.371 31.1114C431.173 27.8224 430 23.9556 430 20H440C440 21.9778 440.587 23.9112 441.685 25.5557C442.784 27.2002 444.346 28.4819 446.173 29.2388C448 29.9957 450.011 30.1937 451.951 29.8078C453.891 29.422 455.673 28.4696 457.071 27.0711C458.47 25.6725 459.422 23.8907 459.808 21.9509C460.194 20.0111 459.996 18.0004 459.239 16.1732C458.482 14.3459 457.2 12.7841 455.556 11.6853Z" fill="#080517"/>
<path fill-rule="evenodd" clip-rule="evenodd" d="M440 5.28493e-06C440 1.31322 439.741 2.61358 439.239 3.82684C438.736 5.04009 438 6.14248 437.071 7.07107C436.142 7.99966 435.04 8.73625 433.827 9.2388C432.614 9.74134 431.313 10 430 10L430 20C432.626 20 435.227 19.4827 437.654 18.4776C440.08 17.4725 442.285 15.9993 444.142 14.1421C445.999 12.285 447.472 10.0802 448.478 7.65367C449.483 5.22715 450 2.62643 450 0L440 5.28493e-06Z" fill="#080517"/>
<path d="M555.619 14.4531H550.767V29.8654H555.619V14.4531Z" fill="#080517"/>
<path d="M551.307 11.5666C551.814 12.074 552.448 12.3277 553.209 12.3277C553.97 12.3277 554.594 12.074 555.08 11.5666C555.567 11.0381 555.81 10.4038 555.81 9.66385C555.81 8.90277 555.567 8.26849 555.08 7.76111C554.594 7.25369 553.97 7 553.209 7C552.448 7 551.814 7.25369 551.307 7.76111C550.82 8.26849 550.577 8.90277 550.577 9.66385C550.577 10.4038 550.82 11.0381 551.307 11.5666Z" fill="#080517"/>
<path d="M481.156 29.8657V7.47656H486.135V25.4894H496.061V29.8657H481.156Z" fill="#080517"/>
<path fill-rule="evenodd" clip-rule="evenodd" d="M505.027 30.2135C503.442 30.2135 502.004 29.8647 500.715 29.167C499.446 28.4482 498.442 27.4757 497.702 26.2494C496.962 25.0232 496.592 23.649 496.592 22.1268C496.592 20.6046 496.962 19.241 497.702 18.0359C498.442 16.8308 499.446 15.8794 500.715 15.1818C501.983 14.4629 503.421 14.1035 505.027 14.1035C506.634 14.1035 508.072 14.4524 509.34 15.15C510.609 15.8477 511.613 16.8097 512.353 18.0359C513.093 19.241 513.463 20.6046 513.463 22.1268C513.463 23.649 513.093 25.0232 512.353 26.2494C511.613 27.4757 510.609 28.4482 509.34 29.167C508.072 29.8647 506.634 30.2135 505.027 30.2135ZM505.027 25.8055C505.725 25.8055 506.338 25.6575 506.867 25.3615C507.395 25.0444 507.797 24.611 508.072 24.0613C508.368 23.4905 508.516 22.8456 508.516 22.1268C508.516 21.408 508.368 20.7843 508.072 20.2558C507.776 19.7061 507.364 19.2833 506.835 18.9873C506.328 18.6701 505.725 18.5116 505.027 18.5116C504.351 18.5116 503.748 18.6701 503.22 18.9873C502.691 19.2833 502.279 19.7061 501.983 20.2558C501.687 20.8055 501.539 21.4397 501.539 22.1585C501.539 22.8562 501.687 23.4905 501.983 24.0613C502.279 24.611 502.691 25.0444 503.22 25.3615C503.748 25.6575 504.351 25.8055 505.027 25.8055Z" fill="#080517"/>
<path fill-rule="evenodd" clip-rule="evenodd" d="M517.306 35.8916C518.595 36.4835 520.086 36.7795 521.777 36.7795C523.426 36.7795 524.896 36.4518 526.185 35.7964C527.475 35.141 528.49 34.232 529.23 33.0692C529.97 31.9064 530.34 30.5322 530.34 28.9465V14.4539H525.583V15.4894C525.229 15.1916 524.827 14.9416 524.378 14.7393C523.553 14.3376 522.612 14.1367 521.555 14.1367C520.139 14.1367 518.881 14.475 517.781 15.1515C516.682 15.8069 515.815 16.716 515.181 17.8788C514.547 19.0205 514.23 20.3101 514.23 21.7478C514.23 23.1643 514.547 24.4539 515.181 25.6167C515.815 26.7795 516.682 27.6992 517.781 28.3757C518.881 29.0522 520.139 29.3905 521.555 29.3905C522.591 29.3905 523.532 29.1897 524.378 28.788C524.787 28.5934 525.157 28.3641 525.488 28.1V29.0734C525.488 30.1516 525.139 30.9867 524.441 31.5787C523.765 32.1707 522.824 32.4666 521.619 32.4666C520.646 32.4666 519.811 32.2975 519.113 31.9592C518.437 31.621 517.824 31.1241 517.274 30.4687L514.293 33.4497C515.033 34.5068 516.037 35.3208 517.306 35.8916ZM524.219 24.6336C523.733 24.9296 523.151 25.0776 522.475 25.0776C521.798 25.0776 521.206 24.9296 520.699 24.6336C520.213 24.3376 519.832 23.9359 519.557 23.4285C519.282 22.9 519.145 22.3397 519.145 21.7478C519.145 21.1135 519.282 20.5427 519.557 20.0353C519.832 19.5279 520.223 19.1262 520.731 18.8302C521.238 18.5342 521.819 18.3862 522.475 18.3862C523.151 18.3862 523.733 18.5342 524.219 18.8302C524.726 19.1262 525.107 19.5279 525.361 20.0353C525.636 20.5427 525.773 21.1135 525.773 21.7478C525.773 22.382 525.636 22.9528 525.361 23.4602C525.107 23.9465 524.726 24.3376 524.219 24.6336Z" fill="#080517"/>
<path fill-rule="evenodd" clip-rule="evenodd" d="M540.551 30.2135C538.965 30.2135 537.527 29.8647 536.238 29.167C534.969 28.4482 533.965 27.4757 533.225 26.2494C532.485 25.0232 532.115 23.649 532.115 22.1268C532.115 20.6046 532.485 19.241 533.225 18.0359C533.965 16.8308 534.969 15.8794 536.238 15.1818C537.506 14.4629 538.944 14.1035 540.551 14.1035C542.157 14.1035 543.595 14.4524 544.863 15.15C546.132 15.8477 547.136 16.8097 547.876 18.0359C548.616 19.241 548.986 20.6046 548.986 22.1268C548.986 23.649 548.616 25.0232 547.876 26.2494C547.136 27.4757 546.132 28.4482 544.863 29.167C543.595 29.8647 542.157 30.2135 540.551 30.2135ZM540.551 25.8055C541.248 25.8055 541.861 25.6575 542.39 25.3615C542.918 25.0444 543.32 24.611 543.595 24.0613C543.891 23.4905 544.039 22.8456 544.039 22.1268C544.039 21.408 543.891 20.7843 543.595 20.2558C543.299 19.7061 542.887 19.2833 542.358 18.9873C541.851 18.6701 541.248 18.5116 540.551 18.5116C539.874 18.5116 539.271 18.6701 538.743 18.9873C538.214 19.2833 537.802 19.7061 537.506 20.2558C537.21 20.8055 537.062 21.4397 537.062 22.1585C537.062 22.8562 537.21 23.4905 537.506 24.0613C537.802 24.611 538.214 25.0444 538.743 25.3615C539.271 25.6575 539.874 25.8055 540.551 25.8055Z" fill="#080517"/>
<path fill-rule="evenodd" clip-rule="evenodd" d="M567.281 30.1833C566.246 30.1833 565.294 29.9825 564.427 29.5808C563.971 29.3694 563.559 29.117 563.191 28.8236V36.3673H558.402V14.4539H563.254V15.5176C563.606 15.2297 563.997 14.9808 564.427 14.771C565.294 14.3481 566.246 14.1367 567.281 14.1367C568.74 14.1367 570.03 14.4856 571.15 15.1833C572.292 15.8809 573.18 16.8323 573.814 18.0374C574.47 19.2425 574.797 20.6167 574.797 22.16C574.797 23.7034 574.47 25.0776 573.814 26.2827C573.18 27.4878 572.292 28.4391 571.15 29.1368C570.03 29.8345 568.74 30.1833 567.281 30.1833ZM566.394 25.807C567.091 25.807 567.694 25.6484 568.201 25.3313C568.73 25.0142 569.142 24.5807 569.438 24.0311C569.734 23.4814 569.882 22.8577 569.882 22.16C569.882 21.4412 569.734 20.807 569.438 20.2573C569.142 19.7076 568.73 19.2848 568.201 18.9888C567.694 18.6716 567.102 18.5131 566.425 18.5131C565.749 18.5131 565.146 18.6716 564.618 18.9888C564.11 19.2848 563.709 19.7076 563.413 20.2573C563.117 20.807 562.969 21.4412 562.969 22.16C562.969 22.8577 563.106 23.4814 563.381 24.0311C563.677 24.5807 564.089 25.0142 564.618 25.3313C565.146 25.6484 565.738 25.807 566.394 25.807Z" fill="#080517"/>
<path d="M579.546 29.8958C580.434 30.1284 581.332 30.2446 582.241 30.2446C584.165 30.2446 585.687 29.8007 586.808 28.9127C587.949 28.0248 588.52 26.8303 588.52 25.3292C588.52 24.3567 588.341 23.5744 587.981 22.9825C587.622 22.3694 587.157 21.8831 586.586 21.5237C586.015 21.1643 585.412 20.8788 584.778 20.6674C584.144 20.456 583.541 20.2763 582.971 20.1283C582.4 19.9803 581.935 19.8112 581.575 19.6209C581.216 19.4306 581.036 19.1769 581.036 18.8598C581.036 18.5638 581.174 18.3418 581.448 18.1938C581.723 18.0247 582.135 17.9402 582.685 17.9402C583.256 17.9402 583.837 18.0564 584.429 18.289C585.042 18.5215 585.592 18.9233 586.078 19.4941L588.837 16.7034C588.14 15.8154 587.231 15.1494 586.11 14.7055C585.011 14.2404 583.806 14.0078 582.495 14.0078C581.248 14.0078 580.159 14.2192 579.229 14.642C578.298 15.0649 577.579 15.6463 577.072 16.3862C576.565 17.105 576.311 17.9613 576.311 18.955C576.311 19.8852 576.491 20.6569 576.85 21.27C577.209 21.8619 577.675 22.3271 578.245 22.6653C578.816 23.0036 579.419 23.2679 580.053 23.4581C580.687 23.6484 581.29 23.8281 581.861 23.9973C582.431 24.1453 582.897 24.325 583.256 24.5364C583.637 24.7267 583.827 25.0121 583.827 25.3926C583.827 25.6886 583.668 25.9211 583.351 26.0903C583.055 26.2594 582.622 26.344 582.051 26.344C581.226 26.344 580.465 26.196 579.768 25.9C579.07 25.5829 578.467 25.1495 577.96 24.5998L575.201 27.3905C575.73 27.9613 576.364 28.4688 577.104 28.9127C577.865 29.3355 578.679 29.6632 579.546 29.8958Z" fill="#080517"/>
<path d="M597.368 30.2142C595.952 30.2142 594.694 29.9288 593.595 29.358C592.516 28.766 591.671 27.9626 591.058 26.9478C590.444 25.9119 590.138 24.728 590.138 23.396V14.4531H594.99V23.3326C594.99 23.8611 595.074 24.3157 595.244 24.6962C595.434 25.0768 595.709 25.3728 596.068 25.5842C596.428 25.7956 596.861 25.9013 597.368 25.9013C598.087 25.9013 598.658 25.6793 599.081 25.2353C599.504 24.7702 599.715 24.136 599.715 23.3326V14.4531H604.567V23.3643C604.567 24.7174 604.261 25.9119 603.647 26.9478C603.034 27.9626 602.189 28.766 601.11 29.358C600.032 29.9288 598.785 30.2142 597.368 30.2142Z" fill="#080517"/>
<path d="M611.831 14.4539H606.979V29.8662H611.831V20.8598C611.831 20.3313 611.937 19.8873 612.148 19.5279C612.381 19.1685 612.688 18.8936 613.068 18.7034C613.449 18.4919 613.882 18.3862 614.368 18.3862C615.066 18.3862 615.647 18.6082 616.112 19.0522C616.599 19.475 616.842 20.0776 616.842 20.8598V29.8662H621.694V20.8598C621.694 20.3313 621.8 19.8873 622.011 19.5279C622.244 19.1685 622.55 18.8936 622.931 18.7034C623.311 18.4919 623.745 18.3862 624.231 18.3862C624.929 18.3862 625.51 18.6082 625.975 19.0522C626.461 19.475 626.704 20.0776 626.704 20.8598V29.8662H631.557V20.3207C631.557 19.0311 631.282 17.9317 630.732 17.0226C630.203 16.0923 629.474 15.3841 628.544 14.8979C627.635 14.3904 626.588 14.1367 625.404 14.1367C624.199 14.1367 623.11 14.401 622.138 14.9296C621.506 15.2663 620.954 15.7009 620.481 16.2333C620.04 15.6764 619.504 15.2207 618.871 14.8661C618.026 14.3799 617.064 14.1367 615.986 14.1367C614.844 14.1367 613.819 14.3799 612.91 14.8661C612.514 15.0684 612.155 15.3107 611.831 15.593V14.4539Z" fill="#080517"/>
</g>
</g>
<g clip-path="url(#clip3_2_214)">
<mask id="mask3_2_214" style="mask-type:luminance" maskUnits="userSpaceOnUse" x="214" y="0" width="164" height="40">
<path d="M378 0H214V40H378V0Z" fill="white"/>
</mask>
<g mask="url(#mask3_2_214)">
<path d="M262.104 28.2454H273.772V24.7332H266.251V11.5039H262.104V28.2454Z" fill="#080517"/>
<path d="M280.684 25.9043C279.021 25.9043 278.154 24.4526 278.154 22.2751C278.154 20.0975 279.021 18.6224 280.684 18.6224C282.348 18.6224 283.238 20.0975 283.238 22.2751C283.238 24.4526 282.348 25.9043 280.684 25.9043ZM280.708 28.6204C284.573 28.6204 287.104 25.8809 287.104 22.2751C287.104 18.6692 284.573 15.9297 280.708 15.9297C276.865 15.9297 274.288 18.6692 274.288 22.2751C274.288 25.8809 276.865 28.6204 280.708 28.6204Z" fill="#080517"/>
<path d="M293.795 32.3902C295.576 32.3902 297.145 31.9921 298.2 31.0555C299.16 30.1892 299.793 28.878 299.793 27.075V16.2575H296.138V17.5453H296.091C295.388 16.5384 294.31 15.9062 292.717 15.9062C289.742 15.9062 287.68 18.3882 287.68 21.9004C287.68 25.5765 290.187 27.5902 292.881 27.5902C294.334 27.5902 295.248 27.0048 295.95 26.2087H296.044V27.4028C296.044 28.8545 295.365 29.6975 293.748 29.6975C292.483 29.6975 291.85 29.1589 291.64 28.5267H287.938C288.313 31.0321 290.492 32.3902 293.795 32.3902ZM293.772 24.757C292.342 24.757 291.405 23.5862 291.405 21.7833C291.405 19.957 292.342 18.7862 293.772 18.7862C295.365 18.7862 296.208 20.1443 296.208 21.7599C296.208 23.4458 295.435 24.757 293.772 24.757Z" fill="#080517"/>
<path d="M307.308 25.9043C305.644 25.9043 304.777 24.4526 304.777 22.2751C304.777 20.0975 305.644 18.6224 307.308 18.6224C308.971 18.6224 309.861 20.0975 309.861 22.2751C309.861 24.4526 308.971 25.9043 307.308 25.9043ZM307.331 28.6204C311.197 28.6204 313.727 25.8809 313.727 22.2751C313.727 18.6692 311.197 15.9297 307.331 15.9297C303.489 15.9297 300.912 18.6692 300.912 22.2751C300.912 25.8809 303.489 28.6204 307.331 28.6204Z" fill="#080517"/>
<path d="M314.842 28.2454H318.661V16.2571H314.842V28.2454ZM314.842 14.5946H318.661V11.5039H314.842V14.5946Z" fill="#080517"/>
<path d="M320.318 32.2028H324.137V27.0048H324.184C324.933 28.0116 326.034 28.6204 327.581 28.6204C330.72 28.6204 332.805 26.1384 332.805 22.2516C332.805 18.6458 330.861 15.9062 327.674 15.9062C326.034 15.9062 324.863 16.6321 324.043 17.7092H323.973V16.2575H320.318V32.2028ZM326.597 25.6702C324.957 25.6702 324.02 24.3355 324.02 22.3921C324.02 20.4487 324.863 18.9736 326.526 18.9736C328.166 18.9736 328.94 20.3316 328.94 22.3921C328.94 24.4292 328.049 25.6702 326.597 25.6702Z" fill="#080517"/>
<path d="M339.023 28.6204C342.162 28.6204 344.482 27.2623 344.482 24.6399C344.482 21.5726 341.998 21.0341 339.89 20.6828C338.367 20.4019 337.008 20.2848 337.008 19.4419C337.008 18.6926 337.734 18.3414 338.671 18.3414C339.726 18.3414 340.452 18.6692 340.592 19.7463H344.107C343.919 17.3814 342.092 15.9062 338.695 15.9062C335.86 15.9062 333.517 17.2175 333.517 19.7463C333.517 22.556 335.743 23.118 337.828 23.4692C339.421 23.7502 340.874 23.8672 340.874 24.9443C340.874 25.717 340.147 26.1384 338.999 26.1384C337.734 26.1384 336.938 25.5531 336.797 24.3589H333.189C333.306 27.0048 335.508 28.6204 339.023 28.6204Z" fill="#080517"/>
<path d="M349.669 28.5973C351.332 28.5973 352.387 27.9417 353.254 26.771H353.324V28.2461H356.979V16.2578H353.16V22.9544C353.16 24.3827 352.363 25.3661 351.051 25.3661C349.833 25.3661 349.247 24.6403 349.247 23.329V16.2578H345.452V24.1251C345.452 26.7944 346.904 28.5973 349.669 28.5973Z" fill="#080517"/>
<path d="M358.64 28.2458H362.459V21.5258C362.459 20.0975 363.162 19.0906 364.357 19.0906C365.505 19.0906 366.044 19.8399 366.044 21.1277V28.2458H369.862V21.5258C369.862 20.0975 370.542 19.0906 371.76 19.0906C372.908 19.0906 373.447 19.8399 373.447 21.1277V28.2458H377.266V20.4487C377.266 17.756 375.907 15.9062 373.189 15.9062C371.643 15.9062 370.354 16.5619 369.417 18.0136H369.37C368.761 16.7258 367.566 15.9062 365.997 15.9062C364.263 15.9062 363.115 16.7258 362.365 17.9667H362.295V16.2575H358.64V28.2458Z" fill="#080517"/>
<path d="M238.805 1.92855L234.965 0.900391L231.73 12.9683L228.809 2.07331L224.969 3.10146L228.126 14.8727L220.265 7.01647L217.454 9.82543L226.076 18.4428L215.339 15.5673L214.31 19.4044L226.042 22.5462C225.908 21.9672 225.837 21.3639 225.837 20.744C225.837 16.3561 229.396 12.799 233.787 12.799C238.177 12.799 241.736 16.3561 241.736 20.744C241.736 21.3599 241.666 21.9595 241.533 22.5351L252.196 25.3904L253.225 21.5533L241.446 18.399L252.184 15.5233L251.155 11.6862L239.377 14.8404L247.238 6.98421L244.427 4.17525L235.924 12.673L238.805 1.92855Z" fill="#080517"/>
<path d="M241.523 22.5801C241.194 23.9709 240.499 25.2204 239.545 26.2214L247.27 33.9415L250.08 31.1326L241.523 22.5801Z" fill="#080517"/>
<path d="M239.467 26.3008C238.502 27.2859 237.283 28.021 235.915 28.3998L238.726 38.8837L242.565 37.8555L239.467 26.3008Z" fill="#080517"/>
<path d="M235.771 28.4384C235.137 28.6015 234.472 28.6881 233.786 28.6881C233.052 28.6881 232.341 28.5886 231.666 28.4023L228.853 38.8958L232.692 39.9239L235.771 28.4384Z" fill="#080517"/>
<path d="M231.531 28.3644C230.184 27.9668 228.986 27.2223 228.041 26.2344L220.297 33.9734L223.108 36.7824L231.531 28.3644Z" fill="#080517"/>
<path d="M227.976 26.1666C227.047 25.1725 226.37 23.9397 226.048 22.5703L215.35 25.435L216.379 29.2721L227.976 26.1666Z" fill="#080517"/>
</g>
</g>
<g clip-path="url(#clip4_2_214)">
<mask id="mask4_2_214" style="mask-type:luminance" maskUnits="userSpaceOnUse" x="0" y="0" width="164" height="40">
<path d="M164 0H0V40H164V0Z" fill="white"/>
</mask>
<g mask="url(#mask4_2_214)">
<path d="M47.7571 28.0911H59.4944V24.5789H51.9288V11.3496H47.7571V28.0911Z" fill="#080517"/>
<path d="M66.4483 25.75C64.775 25.75 63.9029 24.2983 63.9029 22.1208C63.9029 19.9432 64.775 18.4681 66.4483 18.4681C68.1217 18.4681 69.0173 19.9432 69.0173 22.1208C69.0173 24.2983 68.1217 25.75 66.4483 25.75ZM66.4719 28.4661C70.3608 28.4661 72.9062 25.7266 72.9062 22.1208C72.9062 18.5149 70.3608 15.7754 66.4719 15.7754C62.6066 15.7754 60.014 18.5149 60.014 22.1208C60.014 25.7266 62.6066 28.4661 66.4719 28.4661Z" fill="#080517"/>
<path d="M79.6376 32.2359C81.4288 32.2359 83.0079 31.8378 84.0685 30.9012C85.0348 30.0349 85.6712 28.7237 85.6712 26.9207V16.1032H81.9944V17.391H81.9473C81.2402 16.3841 80.1561 15.752 78.5534 15.752C75.5601 15.752 73.4861 18.2339 73.4861 21.7461C73.4861 25.4222 76.008 27.4359 78.7184 27.4359C80.1796 27.4359 81.0988 26.8505 81.8059 26.0544H81.9002V27.2485C81.9002 28.7002 81.2167 29.5432 79.5904 29.5432C78.3177 29.5432 77.6813 29.0046 77.4692 28.3724H73.7453C74.1224 30.8778 76.3143 32.2359 79.6376 32.2359ZM79.614 24.6027C78.1763 24.6027 77.2335 23.432 77.2335 21.629C77.2335 19.8027 78.1763 18.632 79.614 18.632C81.2167 18.632 82.0651 19.99 82.0651 21.6056C82.0651 23.2915 81.2874 24.6027 79.614 24.6027Z" fill="#080517"/>
<path d="M93.2313 25.75C91.5579 25.75 90.6859 24.2983 90.6859 22.1208C90.6859 19.9432 91.5579 18.4681 93.2313 18.4681C94.9047 18.4681 95.8003 19.9432 95.8003 22.1208C95.8003 24.2983 94.9047 25.75 93.2313 25.75ZM93.2549 28.4661C97.1437 28.4661 99.6895 25.7266 99.6895 22.1208C99.6895 18.5149 97.1437 15.7754 93.2549 15.7754C89.3896 15.7754 86.797 18.5149 86.797 22.1208C86.797 25.7266 89.3896 28.4661 93.2549 28.4661Z" fill="#080517"/>
<path d="M100.811 28.0911H104.653V16.1028H100.811V28.0911ZM100.811 14.4403H104.653V11.3496H100.811V14.4403Z" fill="#080517"/>
<path d="M106.319 32.0485H110.161V26.8505H110.208C110.962 27.8573 112.07 28.4661 113.625 28.4661C116.784 28.4661 118.881 25.9841 118.881 22.0973C118.881 18.4915 116.925 15.752 113.72 15.752C112.07 15.752 110.891 16.4778 110.067 17.5549H109.996V16.1032H106.319V32.0485ZM112.636 25.5159C110.986 25.5159 110.043 24.1812 110.043 22.2378C110.043 20.2944 110.891 18.8193 112.565 18.8193C114.215 18.8193 114.992 20.1773 114.992 22.2378C114.992 24.2749 114.097 25.5159 112.636 25.5159Z" fill="#080517"/>
<path d="M125.137 28.4661C128.295 28.4661 130.629 27.1081 130.629 24.4856C130.629 21.4183 128.13 20.8798 126.009 20.5285C124.477 20.2476 123.11 20.1305 123.11 19.2876C123.11 18.5383 123.841 18.1871 124.783 18.1871C125.844 18.1871 126.575 18.5149 126.716 19.592H130.251C130.063 17.2271 128.224 15.752 124.807 15.752C121.955 15.752 119.598 17.0632 119.598 19.592C119.598 22.4017 121.837 22.9637 123.935 23.3149C125.538 23.5959 126.999 23.7129 126.999 24.79C126.999 25.5627 126.268 25.9841 125.113 25.9841C123.841 25.9841 123.039 25.3988 122.898 24.2046H119.268C119.386 26.8505 121.602 28.4661 125.137 28.4661Z" fill="#080517"/>
<path d="M135.846 28.4411C137.519 28.4411 138.58 27.7855 139.452 26.6147H139.523V28.0899H143.2V16.1016H139.358V22.7981C139.358 24.2264 138.556 25.2099 137.237 25.2099C136.011 25.2099 135.422 24.484 135.422 23.1728V16.1016H131.604V23.9689C131.604 26.6381 133.065 28.4411 135.846 28.4411Z" fill="#080517"/>
<path d="M144.871 28.0915H148.713V21.3715C148.713 19.9432 149.42 18.9363 150.622 18.9363C151.777 18.9363 152.319 19.6856 152.319 20.9734V28.0915H156.16V21.3715C156.16 19.9432 156.844 18.9363 158.07 18.9363C159.224 18.9363 159.766 19.6856 159.766 20.9734V28.0915H163.608V20.2944C163.608 17.6017 162.241 15.752 159.507 15.752C157.952 15.752 156.655 16.4076 155.713 17.8593H155.666C155.053 16.5715 153.851 15.752 152.272 15.752C150.528 15.752 149.373 16.5715 148.618 17.8124H148.548V16.1032H144.871V28.0915Z" fill="#080517"/>
<path fill-rule="evenodd" clip-rule="evenodd" d="M8.4987 3.79527C7.09374 4.77123 5.82328 5.92513 4.7204 7.22408C9.22726 6.8084 14.9531 7.48715 21.6007 10.7892C28.6994 14.3153 34.4156 14.4345 38.3939 13.6722C38.0329 12.5864 37.5784 11.5429 37.0401 10.5509C32.4861 11.0281 26.6479 10.3964 19.844 7.01684C15.5234 4.87069 11.7149 3.98662 8.4987 3.79527ZM34.3799 6.7892C30.7836 2.79735 25.5573 0.285156 19.7403 0.285156C18.032 0.285156 16.3746 0.501846 14.7945 0.909039C16.9345 1.48914 19.2079 2.33782 21.6007 3.52639C26.5821 6.00079 30.8829 6.7975 34.3799 6.7892ZM39.2444 17.4833C34.4383 18.4261 27.8016 18.2324 19.844 14.2797C12.4045 10.5843 6.48327 10.6308 2.48979 11.5125C2.28366 11.5579 2.08238 11.6057 1.88596 11.6555C1.36312 12.7851 0.945765 13.973 0.646311 15.2066C0.966144 15.1217 1.29664 15.041 1.63763 14.9657C6.48242 13.8962 13.3277 13.9426 21.6007 18.0521C29.0403 21.7475 34.9614 21.7009 38.955 20.8193C39.0918 20.7891 39.2266 20.7579 39.3592 20.7257C39.3737 20.4181 39.381 20.1085 39.381 19.7973C39.381 19.0144 39.3347 18.2422 39.2444 17.4833ZM38.7179 24.8435C33.9585 25.6701 27.5151 25.3528 19.844 21.5425C12.4045 17.8471 6.48327 17.8936 2.48979 18.7753C1.60335 18.9709 0.805928 19.2092 0.102487 19.4608C0.100569 19.5727 0.0996094 19.6849 0.0996094 19.7973C0.0996094 30.5736 8.89304 39.3095 19.7403 39.3095C28.8311 39.3095 36.4794 33.1738 38.7179 24.8435Z" fill="#080517"/>
</g>
</g>
<defs>
<clipPath id="clip0_2_214">
<rect width="172" height="40" fill="white" transform="translate(898)"/>
</clipPath>
<clipPath id="clip1_2_214">
<rect width="166" height="40" fill="white" transform="translate(682)"/>
</clipPath>
<clipPath id="clip2_2_214">
<rect width="202" height="40" fill="white" transform="translate(430)"/>
</clipPath>
<clipPath id="clip3_2_214">
<rect width="164" height="40" fill="white" transform="translate(214)"/>
</clipPath>
<clipPath id="clip4_2_214">
<rect width="164" height="40" fill="white"/>
</clipPath>
</defs>
</svg>
